<svg version="1.1" xmlns="http://www.w3.org/2000/svg" xmlns:xlink="http://www.w3.org/1999/xlink" width="869" height="868">
<defs/>
<g>
<g>
<rect fill="#FFADAD" stroke="none" x="448" y="512" width="144" height="208" transform="matrix(1 0 0 1 -374 -358)"/>
</g>
<g>
<path fill="none" stroke="#000000" paint-order="fill stroke markers" d=" M 74 154 L 218 154 L 218 362 L 74 362 L 74 154 Z Z" stroke-miterlimit="10" stroke-dasharray=""/>
</g>
<g>
<rect fill="#FFADAD" stroke="none" x="448" y="512" width="144" height="208" transform="matrix(1 0 0 1 -374 -358)"/>
</g>
<g>
<path fill="none" stroke="#000000" paint-order="fill stroke markers" d=" M 74 154 L 218 154 L 218 362 L 74 362 L 74 154 Z Z" stroke-miterlimit="10" stroke-dasharray=""/>
</g>
<g>
<g>
<path fill="none" stroke="none"/>
<text fill="#000000" stroke="none" font-family="Arial" font-size="13px" font-style="normal" font-weight="bold" text-decoration="undefined" x="520.5" y="525.5" text-anchor="middle" dominant-baseline="central" transform="matrix(1 0 0 1 -374 -358)">
M_Provider</text>
<path fill="none" stroke="#000000" paint-order="fill stroke markers" d=" M 181.90087890625 174 L 111.09912109375 174" stroke-miterlimit="10" stroke-dasharray=""/>
</g>
</g>
<g>
<rect fill="#A3E0FF" stroke="none" x="672" y="736" width="160" height="96" transform="matrix(1 0 0 1 -374 -358)"/>
</g>
<g>
<path fill="none" stroke="#000000" paint-order="fill stroke markers" d=" M 298 378 L 458 378 L 458 474 L 298 474 L 298 378 Z Z" stroke-miterlimit="10" stroke-dasharray=""/>
</g>
<g>
<rect fill="#A3E0FF" stroke="none" x="672" y="736" width="160" height="96" transform="matrix(1 0 0 1 -374 -358)"/>
</g>
<g>
<path fill="none" stroke="#000000" paint-order="fill stroke markers" d=" M 298 378 L 458 378 L 458 474 L 298 474 L 298 378 Z Z" stroke-miterlimit="10" stroke-dasharray=""/>
</g>
<g>
<g>
<path fill="none" stroke="none"/>
<text fill="#000000" stroke="none" font-family="Arial" font-size="13px" font-style="normal" font-weight="bold" text-decoration="undefined" x="752.5" y="749.5" text-anchor="middle" dominant-baseline="central" transform="matrix(1 0 0 1 -374 -358)">
Mapper</text>
<path fill="none" stroke="#000000" paint-order="fill stroke markers" d=" M 401.614990234375 398 L 355.385009765625 398" stroke-miterlimit="10" stroke-dasharray=""/>
</g>
</g>
<g>
<rect fill="#FFADAD" stroke="none" x="672" y="880" width="160" height="96" transform="matrix(1 0 0 1 -374 -358)"/>
</g>
<g>
<path fill="none" stroke="#000000" paint-order="fill stroke markers" d=" M 298 522 L 458 522 L 458 618 L 298 618 L 298 522 Z Z" stroke-miterlimit="10" stroke-dasharray=""/>
</g>
<g>
<rect fill="#FFADAD" stroke="none" x="672" y="880" width="160" height="96" transform="matrix(1 0 0 1 -374 -358)"/>
</g>
<g>
<path fill="none" stroke="#000000" paint-order="fill stroke markers" d=" M 298 522 L 458 522 L 458 618 L 298 618 L 298 522 Z Z" stroke-miterlimit="10" stroke-dasharray=""/>
</g>
<g>
<g>
<path fill="none" stroke="none"/>
<text fill="#000000" stroke="none" font-family="Arial" font-size="13px" font-style="normal" font-weight="bold" text-decoration="undefined" x="752.5" y="893.5" text-anchor="middle" dominant-baseline="central" transform="matrix(1 0 0 1 -374 -358)">
M_Com</text>
<path fill="none" stroke="#000000" paint-order="fill stroke markers" d=" M 401.9736328125 542 L 355.0263671875 542" stroke-miterlimit="10" stroke-dasharray=""/>
</g>
</g>
<g>
<rect fill="#FFADAD" stroke="none" x="464" y="624" width="112" height="32" transform="matrix(1 0 0 1 -374 -358)"/>
</g>
<g>
<path fill="none" stroke="#000000" paint-order="fill stroke markers" d=" M 90 266 L 202 266 L 202 298 L 90 298 L 90 266 Z Z" stroke-miterlimit="10" stroke-dasharray=""/>
</g>
<g>
<rect fill="#FFADAD" stroke="none" x="464" y="624" width="112" height="32" transform="matrix(1 0 0 1 -374 -358)"/>
</g>
<g>
<path fill="none" stroke="#000000" paint-order="fill stroke markers" d=" M 90 266 L 202 266 L 202 298 L 90 298 L 90 266 Z Z" stroke-miterlimit="10" stroke-dasharray=""/>
</g>
<g>
<g>
<path fill="none" stroke="none"/>
<text fill="#000000" stroke="none" font-family="Arial" font-size="13px" font-style="normal" font-weight="bold" text-decoration="undefined" x="520.5" y="637.5" text-anchor="middle" dominant-baseline="central" transform="matrix(1 0 0 1 -374 -358)">
M_Elem 3</text>
<path fill="none" stroke="#000000" paint-order="fill stroke markers" d=" M 176.486328125 286 L 116.513671875 286" stroke-miterlimit="10" stroke-dasharray=""/>
</g>
</g>
<g>
<rect fill="#FFFFFF00" stroke="none" x="912" y="736" width="160" height="96" transform="matrix(1 0 0 1 -374 -358)"/>
</g>
<g>
<path fill="none" stroke="#C6C6C6" paint-order="fill stroke markers" d=" M 538 378 L 698 378 L 698 474 L 538 474 L 538 378 Z Z" stroke-miterlimit="10" stroke-dasharray=""/>
</g>
<g>
<rect fill="#FFFFFF00" stroke="none" x="912" y="736" width="160" height="96" transform="matrix(1 0 0 1 -374 -358)"/>
</g>
<g>
<path fill="none" stroke="#C6C6C6" paint-order="fill stroke markers" d=" M 538 378 L 698 378 L 698 474 L 538 474 L 538 378 Z Z" stroke-miterlimit="10" stroke-dasharray=""/>
</g>
<g>
<g>
<path fill="none" stroke="none"/>
<text fill="#C6C6C6" stroke="none" font-family="Arial" font-size="13px" font-style="normal" font-weight="bold" text-decoration="undefined" x="992.5" y="749.5" text-anchor="middle" dominant-baseline="central" transform="matrix(1 0 0 1 -374 -358)">
M_Reader</text>
<path fill="none" stroke="#C6C6C6" paint-order="fill stroke markers" d=" M 649.568603515625 398 L 587.431396484375 398" stroke-miterlimit="10" stroke-dasharray=""/>
</g>
</g>
<g>
<rect fill="#FFFFFF00" stroke="none" x="560" y="1120" width="96" height="96" transform="matrix(1 0 0 1 -374 -358)"/>
</g>
<g>
<path fill="none" stroke="#C6C6C6" paint-order="fill stroke markers" d=" M 186 762 L 282 762 L 282 858 L 186 858 L 186 762 Z Z" stroke-miterlimit="10" stroke-dasharray=""/>
</g>
<g>
<rect fill="#FFFFFF00" stroke="none" x="560" y="1120" width="96" height="96" transform="matrix(1 0 0 1 -374 -358)"/>
</g>
<g>
<path fill="none" stroke="#C6C6C6" paint-order="fill stroke markers" d=" M 186 762 L 282 762 L 282 858 L 186 858 L 186 762 Z Z" stroke-miterlimit="10" stroke-dasharray=""/>
</g>
<g>
<g>
<path fill="none" stroke="none"/>
<text fill="#C6C6C6" stroke="none" font-family="Arial" font-size="13px" font-style="normal" font-weight="bold" text-decoration="undefined" x="608.5" y="1133.5" text-anchor="middle" dominant-baseline="central" transform="matrix(1 0 0 1 -374 -358)">
GUI</text>
<path fill="none" stroke="#C6C6C6" paint-order="fill stroke markers" d=" M 246.055908203125 782 L 222.944091796875 782" stroke-miterlimit="10" stroke-dasharray=""/>
</g>
</g>
<g>
<rect fill="#FFFFFF00" stroke="none" x="688" y="1120" width="96" height="96" transform="matrix(1 0 0 1 -374 -358)"/>
</g>
<g>
<path fill="none" stroke="#C6C6C6" paint-order="fill stroke markers" d=" M 314 762 L 410 762 L 410 858 L 314 858 L 314 762 Z Z" stroke-miterlimit="10" stroke-dasharray=""/>
</g>
<g>
<rect fill="#FFFFFF00" stroke="none" x="688" y="1120" width="96" height="96" transform="matrix(1 0 0 1 -374 -358)"/>
</g>
<g>
<path fill="none" stroke="#C6C6C6" paint-order="fill stroke markers" d=" M 314 762 L 410 762 L 410 858 L 314 858 L 314 762 Z Z" stroke-miterlimit="10" stroke-dasharray=""/>
</g>
<g>
<g>
<path fill="none" stroke="none"/>
<text fill="#C6C6C6" stroke="none" font-family="Arial" font-size="13px" font-style="normal" font-weight="bold" text-decoration="undefined" x="736.5" y="1133.5" text-anchor="middle" dominant-baseline="central" transform="matrix(1 0 0 1 -374 -358)">
FLD</text>
<path fill="none" stroke="#C6C6C6" paint-order="fill stroke markers" d=" M 375.135009765625 782 L 349.864990234375 782" stroke-miterlimit="10" stroke-dasharray=""/>
</g>
</g>
<g>
<rect fill="#FFFFFF00" stroke="none" x="944" y="1120" width="96" height="96" transform="matrix(1 0 0 1 -374 -358)"/>
</g>
<g>
<path fill="none" stroke="#C6C6C6" paint-order="fill stroke markers" d=" M 570 762 L 666 762 L 666 858 L 570 858 L 570 762 Z Z" stroke-miterlimit="10" stroke-dasharray=""/>
</g>
<g>
<rect fill="#FFFFFF00" stroke="none" x="944" y="1120" width="96" height="96" transform="matrix(1 0 0 1 -374 -358)"/>
</g>
<g>
<path fill="none" stroke="#C6C6C6" paint-order="fill stroke markers" d=" M 570 762 L 666 762 L 666 858 L 570 858 L 570 762 Z Z" stroke-miterlimit="10" stroke-dasharray=""/>
</g>
<g>
<g>
<path fill="none" stroke="none"/>
<text fill="#C6C6C6" stroke="none" font-family="Arial" font-size="13px" font-style="normal" font-weight="bold" text-decoration="undefined" x="992.5" y="1133.5" text-anchor="middle" dominant-baseline="central" transform="matrix(1 0 0 1 -374 -358)">
project data</text>
<path fill="none" stroke="#C6C6C6" paint-order="fill stroke markers" d=" M 655.341796875 782 L 581.658203125 782" stroke-miterlimit="10" stroke-dasharray=""/>
</g>
</g>
<g>
<path fill="none" stroke="#C6C6C6" paint-order="fill stroke markers" d=" M 218 762 L 218 714" stroke-miterlimit="10" stroke-dasharray=""/>
</g>
<g>
<path fill="none" stroke="#C6C6C6" paint-order="fill stroke markers" d=" M 222.209517756016 724.1626748576241 L 218 714 L 213.790482243984 724.1626748576241" stroke-miterlimit="10" stroke-dasharray=""/>
</g>
<g>
<path fill="none" stroke="#C6C6C6" paint-order="fill stroke markers" d=" M 250 714 L 250 762" stroke-miterlimit="10" stroke-dasharray=""/>
</g>
<g>
<path fill="none" stroke="#C6C6C6" paint-order="fill stroke markers" d=" M 245.790482243984 751.8373251423759 L 250 762 L 254.209517756016 751.8373251423759" stroke-miterlimit="10" stroke-dasharray=""/>
</g>
<g>
<rect fill="#FFFFFF00" stroke="none" x="1072" y="608" width="160" height="96" transform="matrix(1 0 0 1 -374 -358)"/>
</g>
<g>
<path fill="none" stroke="#C6C6C6" paint-order="fill stroke markers" d=" M 698 250 L 858 250 L 858 346 L 698 346 L 698 250 Z Z" stroke-miterlimit="10" stroke-dasharray=""/>
</g>
<g>
<rect fill="#FFFFFF00" stroke="none" x="1072" y="608" width="160" height="96" transform="matrix(1 0 0 1 -374 -358)"/>
</g>
<g>
<path fill="none" stroke="#C6C6C6" paint-order="fill stroke markers" d=" M 698 250 L 858 250 L 858 346 L 698 346 L 698 250 Z Z" stroke-miterlimit="10" stroke-dasharray=""/>
</g>
<g>
<g>
<path fill="none" stroke="none"/>
<text fill="#C6C6C6" stroke="none" font-family="Arial" font-size="13px" font-style="normal" font-weight="bold" text-decoration="undefined" x="1152.5" y="621.5" text-anchor="middle" dominant-baseline="central" transform="matrix(1 0 0 1 -374 -358)">
Main</text>
<path fill="none" stroke="#C6C6C6" paint-order="fill stroke markers" d=" M 793.305908203125 270 L 763.694091796875 270" stroke-miterlimit="10" stroke-dasharray=""/>
</g>
</g>
<g>
<rect fill="#FFADAD" stroke="none" x="464" y="592" width="112" height="32" transform="matrix(1 0 0 1 -374 -358)"/>
</g>
<g>
<path fill="none" stroke="#000000" paint-order="fill stroke markers" d=" M 90 234 L 202 234 L 202 266 L 90 266 L 90 234 Z Z" stroke-miterlimit="10" stroke-dasharray=""/>
</g>
<g>
<rect fill="#FFADAD" stroke="none" x="464" y="592" width="112" height="32" transform="matrix(1 0 0 1 -374 -358)"/>
</g>
<g>
<path fill="none" stroke="#000000" paint-order="fill stroke markers" d=" M 90 234 L 202 234 L 202 266 L 90 266 L 90 234 Z Z" stroke-miterlimit="10" stroke-dasharray=""/>
</g>
<g>
<g>
<path fill="none" stroke="none"/>
<text fill="#000000" stroke="none" font-family="Arial" font-size="13px" font-style="normal" font-weight="bold" text-decoration="undefined" x="520.5" y="605.5" text-anchor="middle" dominant-baseline="central" transform="matrix(1 0 0 1 -374 -358)">
M_Elem 2</text>
<path fill="none" stroke="#000000" paint-order="fill stroke markers" d=" M 176.486328125 254 L 116.513671875 254" stroke-miterlimit="10" stroke-dasharray=""/>
</g>
</g>
<g>
<path fill="none" stroke="#000000" paint-order="fill stroke markers" d=" M 378 474 L 378 522" stroke-miterlimit="10" stroke-dasharray=""/>
</g>
<g>
<path fill="none" stroke="#000000" paint-order="fill stroke markers" d=" M 373.790482243984 511.8373251423759 L 378 522 L 382.209517756016 511.8373251423759" stroke-miterlimit="10" stroke-dasharray=""/>
</g>
<g>
<path fill="none" stroke="#C6C6C6" paint-order="fill stroke markers" d=" M 346 762 L 346 714" stroke-miterlimit="10" stroke-dasharray=""/>
</g>
<g>
<path fill="none" stroke="#C6C6C6" paint-order="fill stroke markers" d=" M 350.209517756016 724.1626748576241 L 346 714 L 341.790482243984 724.1626748576241" stroke-miterlimit="10" stroke-dasharray=""/>
</g>
<g>
<path fill="none" stroke="#C6C6C6" paint-order="fill stroke markers" d=" M 378 714 L 378 762" stroke-miterlimit="10" stroke-dasharray=""/>
</g>
<g>
<path fill="none" stroke="#C6C6C6" paint-order="fill stroke markers" d=" M 373.790482243984 751.8373251423759 L 378 762 L 382.209517756016 751.8373251423759" stroke-miterlimit="10" stroke-dasharray=""/>
</g>
<g>
<rect fill="#FFADAD" stroke="none" x="464" y="560" width="112" height="32" transform="matrix(1 0 0 1 -374 -358)"/>
</g>
<g>
<path fill="none" stroke="#000000" paint-order="fill stroke markers" d=" M 90 202 L 202 202 L 202 234 L 90 234 L 90 202 Z Z" stroke-miterlimit="10" stroke-dasharray=""/>
</g>
<g>
<rect fill="#FFADAD" stroke="none" x="464" y="560" width="112" height="32" transform="matrix(1 0 0 1 -374 -358)"/>
</g>
<g>
<path fill="none" stroke="#000000" paint-order="fill stroke markers" d=" M 90 202 L 202 202 L 202 234 L 90 234 L 90 202 Z Z" stroke-miterlimit="10" stroke-dasharray=""/>
</g>
<g>
<g>
<path fill="none" stroke="none"/>
<text fill="#000000" stroke="none" font-family="Arial" font-size="13px" font-style="normal" font-weight="bold" text-decoration="undefined" x="520.5" y="573.5" text-anchor="middle" dominant-baseline="central" transform="matrix(1 0 0 1 -374 -358)">
M_Elem 1</text>
<path fill="none" stroke="#000000" paint-order="fill stroke markers" d=" M 176.486328125 222 L 116.513671875 222" stroke-miterlimit="10" stroke-dasharray=""/>
</g>
</g>
<g>
<rect fill="#FFADAD" stroke="none" x="464" y="656" width="112" height="32" transform="matrix(1 0 0 1 -374 -358)"/>
</g>
<g>
<path fill="none" stroke="#000000" paint-order="fill stroke markers" d=" M 90 298 L 202 298 L 202 330 L 90 330 L 90 298 Z Z" stroke-miterlimit="10" stroke-dasharray=""/>
</g>
<g>
<rect fill="#FFADAD" stroke="none" x="464" y="656" width="112" height="32" transform="matrix(1 0 0 1 -374 -358)"/>
</g>
<g>
<path fill="none" stroke="#000000" paint-order="fill stroke markers" d=" M 90 298 L 202 298 L 202 330 L 90 330 L 90 298 Z Z" stroke-miterlimit="10" stroke-dasharray=""/>
</g>
<g>
<g>
<path fill="none" stroke="none"/>
<text fill="#000000" stroke="none" font-family="Arial" font-size="13px" font-style="normal" font-weight="bold" text-decoration="undefined" x="520.5" y="669.5" text-anchor="middle" dominant-baseline="central" transform="matrix(1 0 0 1 -374 -358)">
M_Elem N</text>
<path fill="none" stroke="#000000" paint-order="fill stroke markers" d=" M 177.5654296875 318 L 115.4345703125 318" stroke-miterlimit="10" stroke-dasharray=""/>
</g>
</g>
<g>
<rect fill="#FFFFFF00" stroke="none" x="816" y="1120" width="96" height="96" transform="matrix(1 0 0 1 -374 -358)"/>
</g>
<g>
<path fill="none" stroke="#C6C6C6" paint-order="fill stroke markers" d=" M 442 762 L 538 762 L 538 858 L 442 858 L 442 762 Z Z" stroke-miterlimit="10" stroke-dasharray=""/>
</g>
<g>
<rect fill="#FFFFFF00" stroke="none" x="816" y="1120" width="96" height="96" transform="matrix(1 0 0 1 -374 -358)"/>
</g>
<g>
<path fill="none" stroke="#C6C6C6" paint-order="fill stroke markers" d=" M 442 762 L 538 762 L 538 858 L 442 858 L 442 762 Z Z" stroke-miterlimit="10" stroke-dasharray=""/>
</g>
<g>
<g>
<path fill="none" stroke="none"/>
<text fill="#C6C6C6" stroke="none" font-family="Arial" font-size="13px" font-style="normal" font-weight="bold" text-decoration="undefined" x="864.5" y="1133.5" text-anchor="middle" dominant-baseline="central" transform="matrix(1 0 0 1 -374 -358)">
CTRL</text>
<path fill="none" stroke="#C6C6C6" paint-order="fill stroke markers" d=" M 507.8291015625 782 L 473.1708984375 782" stroke-miterlimit="10" stroke-dasharray=""/>
</g>
</g>
<g>
<path fill="none" stroke="#C6C6C6" paint-order="fill stroke markers" d=" M 474 762 L 474 714" stroke-miterlimit="10" stroke-dasharray=""/>
</g>
<g>
<path fill="none" stroke="#C6C6C6" paint-order="fill stroke markers" d=" M 478.209517756016 724.1626748576241 L 474 714 L 469.790482243984 724.1626748576241" stroke-miterlimit="10" stroke-dasharray=""/>
</g>
<g>
<path fill="none" stroke="#C6C6C6" paint-order="fill stroke markers" d=" M 506 714 L 506 762" stroke-miterlimit="10" stroke-dasharray=""/>
</g>
<g>
<path fill="none" stroke="#C6C6C6" paint-order="fill stroke markers" d=" M 501.790482243984 751.8373251423759 L 506 762 L 510.209517756016 751.8373251423759" stroke-miterlimit="10" stroke-dasharray=""/>
</g>
<g>
<rect fill="#FFFFFF00" stroke="none" x="560" y="1024" width="352" height="48" transform="matrix(1 0 0 1 -374 -358)"/>
</g>
<g>
<path fill="none" stroke="#C6C6C6" paint-order="fill stroke markers" d=" M 186 666 L 538 666 L 538 714 L 186 714 L 186 666 Z Z" stroke-miterlimit="10" stroke-dasharray=""/>
</g>
<g>
<rect fill="#FFFFFF00" stroke="none" x="560" y="1024" width="352" height="48" transform="matrix(1 0 0 1 -374 -358)"/>
</g>
<g>
<path fill="none" stroke="#C6C6C6" paint-order="fill stroke markers" d=" M 186 666 L 538 666 L 538 714 L 186 714 L 186 666 Z Z" stroke-miterlimit="10" stroke-dasharray=""/>
</g>
<g>
<g>
<path fill="none" stroke="none"/>
<text fill="#C6C6C6" stroke="none" font-family="Arial" font-size="13px" font-style="normal" font-weight="bold" text-decoration="undefined" x="736.5" y="1037.5" text-anchor="middle" dominant-baseline="central" transform="matrix(1 0 0 1 -374 -358)">
M_TCP</text>
<path fill="none" stroke="#C6C6C6" paint-order="fill stroke markers" d=" M 384.529541015625 686 L 340.470458984375 686" stroke-miterlimit="10" stroke-dasharray=""/>
</g>
</g>
<g>
<rect fill="#FFFFFF00" stroke="none" x="944" y="1072" width="96" height="48" transform="matrix(1 0 0 1 -374 -358)"/>
</g>
<g>
<path fill="none" stroke="#C6C6C6" paint-order="fill stroke markers" d=" M 570 714 L 666 714 L 666 762 L 570 762 L 570 714 Z Z" stroke-miterlimit="10" stroke-dasharray=""/>
</g>
<g>
<rect fill="#FFFFFF00" stroke="none" x="944" y="1072" width="96" height="48" transform="matrix(1 0 0 1 -374 -358)"/>
</g>
<g>
<path fill="none" stroke="#C6C6C6" paint-order="fill stroke markers" d=" M 570 714 L 666 714 L 666 762 L 570 762 L 570 714 Z Z" stroke-miterlimit="10" stroke-dasharray=""/>
</g>
<g>
<g>
<path fill="none" stroke="none"/>
<text fill="#C6C6C6" stroke="none" font-family="Arial" font-size="13px" font-style="normal" font-weight="bold" text-decoration="undefined" x="992.5" y="1085.5" text-anchor="middle" dominant-baseline="central" transform="matrix(1 0 0 1 -374 -358)">
FS</text>
<path fill="none" stroke="#C6C6C6" paint-order="fill stroke markers" d=" M 626.805908203125 734 L 610.194091796875 734" stroke-miterlimit="10" stroke-dasharray=""/>
</g>
</g>
<g>
<path fill="none" stroke="#000000" paint-order="fill stroke markers" d=" M 298 410 L 146 410 L 146 362" stroke-miterlimit="10" stroke-dasharray=""/>
</g>
<g>
<path fill="none" stroke="#000000" paint-order="fill stroke markers" d=" M 150.209517756016 372.1626748576241 L 146 362 L 141.790482243984 372.1626748576241" stroke-miterlimit="10" stroke-dasharray=""/>
</g>
<g>
<rect fill="#FFADAD" stroke="none" x="736" y="368" width="144" height="128" transform="matrix(1 0 0 1 -374 -358)"/>
</g>
<g>
<path fill="none" stroke="#000000" paint-order="fill stroke markers" d=" M 362 10 L 506 10 L 506 138 L 362 138 L 362 10 Z Z" stroke-miterlimit="10" stroke-dasharray=""/>
</g>
<g>
<rect fill="#FFADAD" stroke="none" x="736" y="368" width="144" height="128" transform="matrix(1 0 0 1 -374 -358)"/>
</g>
<g>
<path fill="none" stroke="#000000" paint-order="fill stroke markers" d=" M 362 10 L 506 10 L 506 138 L 362 138 L 362 10 Z Z" stroke-miterlimit="10" stroke-dasharray=""/>
</g>
<g>
<g>
<path fill="none" stroke="none"/>
<text fill="#000000" stroke="none" font-family="Arial" font-size="13px" font-style="normal" font-weight="bold" text-decoration="undefined" x="808.5" y="381.5" text-anchor="middle" dominant-baseline="central" transform="matrix(1 0 0 1 -374 -358)">
M_Ctrl</text>
<path fill="none" stroke="#000000" paint-order="fill stroke markers" d=" M 454.7236328125 30 L 414.2763671875 30" stroke-miterlimit="10" stroke-dasharray=""/>
</g>
</g>
<g>
<path fill="none" stroke="#000000" paint-order="fill stroke markers" d=" M 298 442 L 10 442 L 10 58 L 362 58" stroke-miterlimit="10" stroke-dasharray=""/>
</g>
<g>
<path fill="none" stroke="#000000" paint-order="fill stroke markers" d=" M 351.8373251423759 62.209517756016 L 362 58 L 351.8373251423758 53.790482243984" stroke-miterlimit="10" stroke-dasharray=""/>
</g>
<g>
<rect fill="#FFFFFF00" stroke="none" x="1008" y="912" width="128" height="96" transform="matrix(1 0 0 1 -374 -358)"/>
</g>
<g>
<path fill="none" stroke="#C6C6C6" paint-order="fill stroke markers" d=" M 634 554 L 762 554 L 762 650 L 634 650 L 634 554 Z Z" stroke-miterlimit="10" stroke-dasharray=""/>
</g>
<g>
<rect fill="#FFFFFF00" stroke="none" x="1008" y="912" width="128" height="96" transform="matrix(1 0 0 1 -374 -358)"/>
</g>
<g>
<path fill="none" stroke="#C6C6C6" paint-order="fill stroke markers" d=" M 634 554 L 762 554 L 762 650 L 634 650 L 634 554 Z Z" stroke-miterlimit="10" stroke-dasharray=""/>
</g>
<g>
<g>
<path fill="none" stroke="none"/>
<text fill="#C6C6C6" stroke="none" font-family="Arial" font-size="13px" font-style="normal" font-weight="bold" text-decoration="undefined" x="1072.5" y="925.5" text-anchor="middle" dominant-baseline="central" transform="matrix(1 0 0 1 -374 -358)">
gen proj data</text>
<path fill="none" stroke="#C6C6C6" paint-order="fill stroke markers" d=" M 739.30908203125 574 L 657.69091796875 574" stroke-miterlimit="10" stroke-dasharray=""/>
</g>
</g>
<g>
<path fill="none" stroke="#C6C6C6" paint-order="fill stroke markers" d=" M 714 650 L 714 730 L 666 730" stroke-miterlimit="10" stroke-dasharray=""/>
</g>
<g>
<path fill="none" stroke="#C6C6C6" paint-order="fill stroke markers" d=" M 676.1626748576241 725.7904822439841 L 666 730 L 676.1626748576241 734.2095177560159" stroke-miterlimit="10" stroke-dasharray=""/>
</g>
<g>
<rect fill="#ffffff" stroke="none" x="672" y="576" width="160" height="96" transform="matrix(1 0 0 1 -374 -358)"/>
</g>
<g>
<path fill="none" stroke="#000000" paint-order="fill stroke markers" d=" M 298 218 L 458 218 L 458 314 L 298 314 L 298 218 Z Z" stroke-miterlimit="10" stroke-dasharray=""/>
</g>
<g>
<rect fill="#ffffff" stroke="none" x="672" y="576" width="160" height="96" transform="matrix(1 0 0 1 -374 -358)"/>
</g>
<g>
<path fill="none" stroke="#000000" paint-order="fill stroke markers" d=" M 298 218 L 458 218 L 458 314 L 298 314 L 298 218 Z Z" stroke-miterlimit="10" stroke-dasharray=""/>
</g>
<g>
<g>
<path fill="none" stroke="none"/>
<text fill="#000000" stroke="none" font-family="Arial" font-size="13px" font-style="normal" font-weight="bold" text-decoration="undefined" x="752.5" y="589.5" text-anchor="middle" dominant-baseline="central" transform="matrix(1 0 0 1 -374 -358)">
method calls</text>
<path fill="none" stroke="#000000" paint-order="fill stroke markers" d=" M 418.233154296875 238 L 338.766845703125 238" stroke-miterlimit="10" stroke-dasharray=""/>
</g>
</g>
<g>
<path fill="none" stroke="#000000" paint-order="fill stroke markers" d=" M 378 314 L 378 378" stroke-miterlimit="10" stroke-dasharray=""/>
</g>
<g>
<path fill="none" stroke="#000000" paint-order="fill stroke markers" d=" M 373.790482243984 367.8373251423759 L 378 378 L 382.209517756016 367.8373251423759" stroke-miterlimit="10" stroke-dasharray=""/>
</g>
</g>
</svg>
