<svg version="1.1" xmlns="http://www.w3.org/2000/svg" xmlns:xlink="http://www.w3.org/1999/xlink" width="901" height="901">
<defs/>
<g>
<g>
<rect fill="#6DCEFF" stroke="none" x="448" y="512" width="144" height="208" transform="matrix(1 0 0 1 -342 -358)"/>
</g>
<g>
<path fill="none" stroke="#000000" paint-order="fill stroke markers" d=" M 106 154 L 250 154 L 250 362 L 106 362 L 106 154 Z Z" stroke-miterlimit="10" stroke-dasharray=""/>
</g>
<g>
<rect fill="#6DCEFF" stroke="none" x="448" y="512" width="144" height="208" transform="matrix(1 0 0 1 -342 -358)"/>
</g>
<g>
<path fill="none" stroke="#000000" paint-order="fill stroke markers" d=" M 106 154 L 250 154 L 250 362 L 106 362 L 106 154 Z Z" stroke-miterlimit="10" stroke-dasharray=""/>
</g>
<g>
<g>
<path fill="none" stroke="none"/>
<text fill="#000000" stroke="none" font-family="Arial" font-size="13px" font-style="normal" font-weight="bold" text-decoration="undefined" x="520.5" y="525.5" text-anchor="middle" dominant-baseline="central" transform="matrix(1 0 0 1 -342 -358)">
Provider</text>
<path fill="none" stroke="#000000" paint-order="fill stroke markers" d=" M 204.871337890625 174 L 152.128662109375 174" stroke-miterlimit="10" stroke-dasharray=""/>
</g>
</g>
<g>
<rect fill="#6DCEFF" stroke="none" x="672" y="736" width="160" height="96" transform="matrix(1 0 0 1 -342 -358)"/>
</g>
<g>
<path fill="none" stroke="#000000" paint-order="fill stroke markers" d=" M 330 378 L 490 378 L 490 474 L 330 474 L 330 378 Z Z" stroke-miterlimit="10" stroke-dasharray=""/>
</g>
<g>
<rect fill="#6DCEFF" stroke="none" x="672" y="736" width="160" height="96" transform="matrix(1 0 0 1 -342 -358)"/>
</g>
<g>
<path fill="none" stroke="#000000" paint-order="fill stroke markers" d=" M 330 378 L 490 378 L 490 474 L 330 474 L 330 378 Z Z" stroke-miterlimit="10" stroke-dasharray=""/>
</g>
<g>
<g>
<path fill="none" stroke="none"/>
<text fill="#000000" stroke="none" font-family="Arial" font-size="13px" font-style="normal" font-weight="bold" text-decoration="undefined" x="752.5" y="749.5" text-anchor="middle" dominant-baseline="central" transform="matrix(1 0 0 1 -342 -358)">
Mapper</text>
<path fill="none" stroke="#000000" paint-order="fill stroke markers" d=" M 433.614990234375 398 L 387.385009765625 398" stroke-miterlimit="10" stroke-dasharray=""/>
</g>
</g>
<g>
<rect fill="#FFA3FF" stroke="none" x="672" y="880" width="160" height="96" transform="matrix(1 0 0 1 -342 -358)"/>
</g>
<g>
<path fill="none" stroke="#000000" paint-order="fill stroke markers" d=" M 330 522 L 490 522 L 490 618 L 330 618 L 330 522 Z Z" stroke-miterlimit="10" stroke-dasharray=""/>
</g>
<g>
<rect fill="#FFA3FF" stroke="none" x="672" y="880" width="160" height="96" transform="matrix(1 0 0 1 -342 -358)"/>
</g>
<g>
<path fill="none" stroke="#000000" paint-order="fill stroke markers" d=" M 330 522 L 490 522 L 490 618 L 330 618 L 330 522 Z Z" stroke-miterlimit="10" stroke-dasharray=""/>
</g>
<g>
<g>
<path fill="none" stroke="none"/>
<text fill="#000000" stroke="none" font-family="Arial" font-size="13px" font-style="normal" font-weight="bold" text-decoration="undefined" x="752.5" y="893.5" text-anchor="middle" dominant-baseline="central" transform="matrix(1 0 0 1 -342 -358)">
Com</text>
<path fill="none" stroke="#000000" paint-order="fill stroke markers" d=" M 424.944091796875 542 L 396.055908203125 542" stroke-miterlimit="10" stroke-dasharray=""/>
</g>
</g>
<g>
<path fill="none" stroke="#000000" paint-order="fill stroke markers" d=" M 394 522 L 394 474" stroke-miterlimit="10" stroke-dasharray=""/>
</g>
<g>
<path fill="none" stroke="#000000" paint-order="fill stroke markers" d=" M 398.209517756016 484.1626748576241 L 394 474 L 389.790482243984 484.1626748576241" stroke-miterlimit="10" stroke-dasharray=""/>
</g>
<g>
<rect fill="#FFDF82" stroke="none" x="464" y="624" width="112" height="32" transform="matrix(1 0 0 1 -342 -358)"/>
</g>
<g>
<path fill="none" stroke="#000000" paint-order="fill stroke markers" d=" M 122 266 L 234 266 L 234 298 L 122 298 L 122 266 Z Z" stroke-miterlimit="10" stroke-dasharray=""/>
</g>
<g>
<rect fill="#FFDF82" stroke="none" x="464" y="624" width="112" height="32" transform="matrix(1 0 0 1 -342 -358)"/>
</g>
<g>
<path fill="none" stroke="#000000" paint-order="fill stroke markers" d=" M 122 266 L 234 266 L 234 298 L 122 298 L 122 266 Z Z" stroke-miterlimit="10" stroke-dasharray=""/>
</g>
<g>
<g>
<path fill="none" stroke="none"/>
<text fill="#000000" stroke="none" font-family="Arial" font-size="13px" font-style="normal" font-weight="bold" text-decoration="undefined" x="520.5" y="637.5" text-anchor="middle" dominant-baseline="central" transform="matrix(1 0 0 1 -342 -358)">
TSW</text>
<path fill="none" stroke="#000000" paint-order="fill stroke markers" d=" M 192.94091796875 286 L 164.05908203125 286" stroke-miterlimit="10" stroke-dasharray=""/>
</g>
</g>
<g>
<rect fill="#6DCEFF" stroke="none" x="912" y="736" width="160" height="96" transform="matrix(1 0 0 1 -342 -358)"/>
</g>
<g>
<path fill="none" stroke="#000000" paint-order="fill stroke markers" d=" M 570 378 L 730 378 L 730 474 L 570 474 L 570 378 Z Z" stroke-miterlimit="10" stroke-dasharray=""/>
</g>
<g>
<rect fill="#6DCEFF" stroke="none" x="912" y="736" width="160" height="96" transform="matrix(1 0 0 1 -342 -358)"/>
</g>
<g>
<path fill="none" stroke="#000000" paint-order="fill stroke markers" d=" M 570 378 L 730 378 L 730 474 L 570 474 L 570 378 Z Z" stroke-miterlimit="10" stroke-dasharray=""/>
</g>
<g>
<g>
<path fill="none" stroke="none"/>
<text fill="#000000" stroke="none" font-family="Arial" font-size="13px" font-style="normal" font-weight="bold" text-decoration="undefined" x="992.5" y="749.5" text-anchor="middle" dominant-baseline="central" transform="matrix(1 0 0 1 -342 -358)">
Reader</text>
<path fill="none" stroke="#000000" paint-order="fill stroke markers" d=" M 672.5390625 398 L 628.4609375 398" stroke-miterlimit="10" stroke-dasharray=""/>
</g>
</g>
<g>
<rect fill="#FFD8FF" stroke="none" x="560" y="1120" width="96" height="96" transform="matrix(1 0 0 1 -342 -358)"/>
</g>
<g>
<path fill="none" stroke="#000000" paint-order="fill stroke markers" d=" M 218 762 L 314 762 L 314 858 L 218 858 L 218 762 Z Z" stroke-miterlimit="10" stroke-dasharray=""/>
</g>
<g>
<rect fill="#FFD8FF" stroke="none" x="560" y="1120" width="96" height="96" transform="matrix(1 0 0 1 -342 -358)"/>
</g>
<g>
<path fill="none" stroke="#000000" paint-order="fill stroke markers" d=" M 218 762 L 314 762 L 314 858 L 218 858 L 218 762 Z Z" stroke-miterlimit="10" stroke-dasharray=""/>
</g>
<g>
<g>
<path fill="none" stroke="none"/>
<text fill="#000000" stroke="none" font-family="Arial" font-size="13px" font-style="normal" font-weight="bold" text-decoration="undefined" x="608.5" y="1133.5" text-anchor="middle" dominant-baseline="central" transform="matrix(1 0 0 1 -342 -358)">
GUI</text>
<path fill="none" stroke="#000000" paint-order="fill stroke markers" d=" M 278.055908203125 782 L 254.944091796875 782" stroke-miterlimit="10" stroke-dasharray=""/>
</g>
</g>
<g>
<rect fill="#FFD8FF" stroke="none" x="688" y="1120" width="96" height="96" transform="matrix(1 0 0 1 -342 -358)"/>
</g>
<g>
<path fill="none" stroke="#000000" paint-order="fill stroke markers" d=" M 346 762 L 442 762 L 442 858 L 346 858 L 346 762 Z Z" stroke-miterlimit="10" stroke-dasharray=""/>
</g>
<g>
<rect fill="#FFD8FF" stroke="none" x="688" y="1120" width="96" height="96" transform="matrix(1 0 0 1 -342 -358)"/>
</g>
<g>
<path fill="none" stroke="#000000" paint-order="fill stroke markers" d=" M 346 762 L 442 762 L 442 858 L 346 858 L 346 762 Z Z" stroke-miterlimit="10" stroke-dasharray=""/>
</g>
<g>
<g>
<path fill="none" stroke="none"/>
<text fill="#000000" stroke="none" font-family="Arial" font-size="13px" font-style="normal" font-weight="bold" text-decoration="undefined" x="736.5" y="1133.5" text-anchor="middle" dominant-baseline="central" transform="matrix(1 0 0 1 -342 -358)">
FLD</text>
<path fill="none" stroke="#000000" paint-order="fill stroke markers" d=" M 407.135009765625 782 L 381.864990234375 782" stroke-miterlimit="10" stroke-dasharray=""/>
</g>
</g>
<g>
<rect fill="#FFFFFF00" stroke="none" x="944" y="1120" width="96" height="96" transform="matrix(1 0 0 1 -342 -358)"/>
</g>
<g>
<path fill="none" stroke="#000000" paint-order="fill stroke markers" d=" M 602 762 L 698 762 L 698 858 L 602 858 L 602 762 Z Z" stroke-miterlimit="10" stroke-dasharray=""/>
</g>
<g>
<rect fill="#FFFFFF00" stroke="none" x="944" y="1120" width="96" height="96" transform="matrix(1 0 0 1 -342 -358)"/>
</g>
<g>
<path fill="none" stroke="#000000" paint-order="fill stroke markers" d=" M 602 762 L 698 762 L 698 858 L 602 858 L 602 762 Z Z" stroke-miterlimit="10" stroke-dasharray=""/>
</g>
<g>
<g>
<path fill="none" stroke="none"/>
<text fill="#000000" stroke="none" font-family="Arial" font-size="13px" font-style="normal" font-weight="bold" text-decoration="undefined" x="992.5" y="1133.5" text-anchor="middle" dominant-baseline="central" transform="matrix(1 0 0 1 -342 -358)">
project data</text>
<path fill="none" stroke="#000000" paint-order="fill stroke markers" d=" M 687.341796875 782 L 613.658203125 782" stroke-miterlimit="10" stroke-dasharray=""/>
</g>
</g>
<g>
<path fill="none" stroke="#000000" paint-order="fill stroke markers" d=" M 250 762 L 250 714" stroke-miterlimit="10" stroke-dasharray=""/>
</g>
<g>
<path fill="none" stroke="#000000" paint-order="fill stroke markers" d=" M 254.209517756016 724.1626748576241 L 250 714 L 245.790482243984 724.1626748576241" stroke-miterlimit="10" stroke-dasharray=""/>
</g>
<g>
<path fill="none" stroke="#000000" paint-order="fill stroke markers" d=" M 282 714 L 282 762" stroke-miterlimit="10" stroke-dasharray=""/>
</g>
<g>
<path fill="none" stroke="#000000" paint-order="fill stroke markers" d=" M 277.790482243984 751.8373251423759 L 282 762 L 286.209517756016 751.8373251423759" stroke-miterlimit="10" stroke-dasharray=""/>
</g>
<g>
<rect fill="#6DCEFF" stroke="none" x="1072" y="608" width="160" height="96" transform="matrix(1 0 0 1 -342 -358)"/>
</g>
<g>
<path fill="none" stroke="#000000" paint-order="fill stroke markers" d=" M 730 250 L 890 250 L 890 346 L 730 346 L 730 250 Z Z" stroke-miterlimit="10" stroke-dasharray=""/>
</g>
<g>
<rect fill="#6DCEFF" stroke="none" x="1072" y="608" width="160" height="96" transform="matrix(1 0 0 1 -342 -358)"/>
</g>
<g>
<path fill="none" stroke="#000000" paint-order="fill stroke markers" d=" M 730 250 L 890 250 L 890 346 L 730 346 L 730 250 Z Z" stroke-miterlimit="10" stroke-dasharray=""/>
</g>
<g>
<g>
<path fill="none" stroke="none"/>
<text fill="#000000" stroke="none" font-family="Arial" font-size="13px" font-style="normal" font-weight="bold" text-decoration="undefined" x="1152.5" y="621.5" text-anchor="middle" dominant-baseline="central" transform="matrix(1 0 0 1 -342 -358)">
Main</text>
<path fill="none" stroke="#000000" paint-order="fill stroke markers" d=" M 825.305908203125 270 L 795.694091796875 270" stroke-miterlimit="10" stroke-dasharray=""/>
</g>
</g>
<g>
<path fill="none" stroke="#000000" paint-order="fill stroke markers" d=" M 730 314 L 698 314 L 698 378" stroke-miterlimit="10" stroke-dasharray=""/>
</g>
<g>
<path fill="none" stroke="#000000" paint-order="fill stroke markers" d=" M 693.7904822439841 367.8373251423759 L 698 378 L 702.2095177560159 367.8373251423759" stroke-miterlimit="10" stroke-dasharray=""/>
</g>
<g>
<rect fill="#D1FFA3" stroke="none" x="464" y="592" width="112" height="32" transform="matrix(1 0 0 1 -342 -358)"/>
</g>
<g>
<path fill="none" stroke="#000000" paint-order="fill stroke markers" d=" M 122 234 L 234 234 L 234 266 L 122 266 L 122 234 Z Z" stroke-miterlimit="10" stroke-dasharray=""/>
</g>
<g>
<rect fill="#D1FFA3" stroke="none" x="464" y="592" width="112" height="32" transform="matrix(1 0 0 1 -342 -358)"/>
</g>
<g>
<path fill="none" stroke="#000000" paint-order="fill stroke markers" d=" M 122 234 L 234 234 L 234 266 L 122 266 L 122 234 Z Z" stroke-miterlimit="10" stroke-dasharray=""/>
</g>
<g>
<g>
<path fill="none" stroke="none"/>
<text fill="#000000" stroke="none" font-family="Arial" font-size="13px" font-style="normal" font-weight="bold" text-decoration="undefined" x="520.5" y="605.5" text-anchor="middle" dominant-baseline="central" transform="matrix(1 0 0 1 -342 -358)">
SIG_X</text>
<path fill="none" stroke="#000000" paint-order="fill stroke markers" d=" M 197.647705078125 254 L 159.352294921875 254" stroke-miterlimit="10" stroke-dasharray=""/>
</g>
</g>
<g>
<path fill="none" stroke="#000000" paint-order="fill stroke markers" d=" M 426 474 L 426 522" stroke-miterlimit="10" stroke-dasharray=""/>
</g>
<g>
<path fill="none" stroke="#000000" paint-order="fill stroke markers" d=" M 421.790482243984 511.8373251423759 L 426 522 L 430.209517756016 511.8373251423759" stroke-miterlimit="10" stroke-dasharray=""/>
</g>
<g>
<path fill="none" stroke="#000000" paint-order="fill stroke markers" d=" M 378 762 L 378 714" stroke-miterlimit="10" stroke-dasharray=""/>
</g>
<g>
<path fill="none" stroke="#000000" paint-order="fill stroke markers" d=" M 382.209517756016 724.1626748576241 L 378 714 L 373.790482243984 724.1626748576241" stroke-miterlimit="10" stroke-dasharray=""/>
</g>
<g>
<path fill="none" stroke="#000000" paint-order="fill stroke markers" d=" M 410 714 L 410 762" stroke-miterlimit="10" stroke-dasharray=""/>
</g>
<g>
<path fill="none" stroke="#000000" paint-order="fill stroke markers" d=" M 405.790482243984 751.8373251423759 L 410 762 L 414.209517756016 751.8373251423759" stroke-miterlimit="10" stroke-dasharray=""/>
</g>
<g>
<rect fill="#D8FFF8" stroke="none" x="464" y="560" width="112" height="32" transform="matrix(1 0 0 1 -342 -358)"/>
</g>
<g>
<path fill="none" stroke="#000000" paint-order="fill stroke markers" d=" M 122 202 L 234 202 L 234 234 L 122 234 L 122 202 Z Z" stroke-miterlimit="10" stroke-dasharray=""/>
</g>
<g>
<rect fill="#D8FFF8" stroke="none" x="464" y="560" width="112" height="32" transform="matrix(1 0 0 1 -342 -358)"/>
</g>
<g>
<path fill="none" stroke="#000000" paint-order="fill stroke markers" d=" M 122 202 L 234 202 L 234 234 L 122 234 L 122 202 Z Z" stroke-miterlimit="10" stroke-dasharray=""/>
</g>
<g>
<g>
<path fill="none" stroke="none"/>
<text fill="#000000" stroke="none" font-family="Arial" font-size="13px" font-style="normal" font-weight="bold" text-decoration="undefined" x="520.5" y="573.5" text-anchor="middle" dominant-baseline="central" transform="matrix(1 0 0 1 -342 -358)">
LCR_X</text>
<path fill="none" stroke="#000000" paint-order="fill stroke markers" d=" M 199.80908203125 222 L 157.19091796875 222" stroke-miterlimit="10" stroke-dasharray=""/>
</g>
</g>
<g>
<rect fill="#D8E5FF" stroke="none" x="464" y="656" width="112" height="32" transform="matrix(1 0 0 1 -342 -358)"/>
</g>
<g>
<path fill="none" stroke="#000000" paint-order="fill stroke markers" d=" M 122 298 L 234 298 L 234 330 L 122 330 L 122 298 Z Z" stroke-miterlimit="10" stroke-dasharray=""/>
</g>
<g>
<rect fill="#D8E5FF" stroke="none" x="464" y="656" width="112" height="32" transform="matrix(1 0 0 1 -342 -358)"/>
</g>
<g>
<path fill="none" stroke="#000000" paint-order="fill stroke markers" d=" M 122 298 L 234 298 L 234 330 L 122 330 L 122 298 Z Z" stroke-miterlimit="10" stroke-dasharray=""/>
</g>
<g>
<g>
<path fill="none" stroke="none"/>
<text fill="#000000" stroke="none" font-family="Arial" font-size="13px" font-style="normal" font-weight="bold" text-decoration="undefined" x="520.5" y="669.5" text-anchor="middle" dominant-baseline="central" transform="matrix(1 0 0 1 -342 -358)">
SEG</text>
<path fill="none" stroke="#000000" paint-order="fill stroke markers" d=" M 192.226806640625 318 L 164.773193359375 318" stroke-miterlimit="10" stroke-dasharray=""/>
</g>
</g>
<g>
<rect fill="#FFD8FF" stroke="none" x="816" y="1120" width="96" height="96" transform="matrix(1 0 0 1 -342 -358)"/>
</g>
<g>
<path fill="none" stroke="#000000" paint-order="fill stroke markers" d=" M 474 762 L 570 762 L 570 858 L 474 858 L 474 762 Z Z" stroke-miterlimit="10" stroke-dasharray=""/>
</g>
<g>
<rect fill="#FFD8FF" stroke="none" x="816" y="1120" width="96" height="96" transform="matrix(1 0 0 1 -342 -358)"/>
</g>
<g>
<path fill="none" stroke="#000000" paint-order="fill stroke markers" d=" M 474 762 L 570 762 L 570 858 L 474 858 L 474 762 Z Z" stroke-miterlimit="10" stroke-dasharray=""/>
</g>
<g>
<g>
<path fill="none" stroke="none"/>
<text fill="#000000" stroke="none" font-family="Arial" font-size="13px" font-style="normal" font-weight="bold" text-decoration="undefined" x="864.5" y="1133.5" text-anchor="middle" dominant-baseline="central" transform="matrix(1 0 0 1 -342 -358)">
CTRL</text>
<path fill="none" stroke="#000000" paint-order="fill stroke markers" d=" M 539.8291015625 782 L 505.1708984375 782" stroke-miterlimit="10" stroke-dasharray=""/>
</g>
</g>
<g>
<path fill="none" stroke="#000000" paint-order="fill stroke markers" d=" M 506 762 L 506 714" stroke-miterlimit="10" stroke-dasharray=""/>
</g>
<g>
<path fill="none" stroke="#000000" paint-order="fill stroke markers" d=" M 510.209517756016 724.1626748576241 L 506 714 L 501.790482243984 724.1626748576241" stroke-miterlimit="10" stroke-dasharray=""/>
</g>
<g>
<path fill="none" stroke="#000000" paint-order="fill stroke markers" d=" M 538 714 L 538 762" stroke-miterlimit="10" stroke-dasharray=""/>
</g>
<g>
<path fill="none" stroke="#000000" paint-order="fill stroke markers" d=" M 533.790482243984 751.8373251423759 L 538 762 L 542.209517756016 751.8373251423759" stroke-miterlimit="10" stroke-dasharray=""/>
</g>
<g>
<rect fill="#FFD8FF" stroke="none" x="560" y="1024" width="352" height="48" transform="matrix(1 0 0 1 -342 -358)"/>
</g>
<g>
<path fill="none" stroke="#000000" paint-order="fill stroke markers" d=" M 218 666 L 570 666 L 570 714 L 218 714 L 218 666 Z Z" stroke-miterlimit="10" stroke-dasharray=""/>
</g>
<g>
<rect fill="#FFD8FF" stroke="none" x="560" y="1024" width="352" height="48" transform="matrix(1 0 0 1 -342 -358)"/>
</g>
<g>
<path fill="none" stroke="#000000" paint-order="fill stroke markers" d=" M 218 666 L 570 666 L 570 714 L 218 714 L 218 666 Z Z" stroke-miterlimit="10" stroke-dasharray=""/>
</g>
<g>
<g>
<path fill="none" stroke="none"/>
<text fill="#000000" stroke="none" font-family="Arial" font-size="13px" font-style="normal" font-weight="bold" text-decoration="undefined" x="736.5" y="1037.5" text-anchor="middle" dominant-baseline="central" transform="matrix(1 0 0 1 -342 -358)">
TCP</text>
<path fill="none" stroke="#000000" paint-order="fill stroke markers" d=" M 407.5 686 L 381.5 686" stroke-miterlimit="10" stroke-dasharray=""/>
</g>
</g>
<g>
<rect fill="#E2E2E2" stroke="none" x="944" y="1072" width="96" height="48" transform="matrix(1 0 0 1 -342 -358)"/>
</g>
<g>
<path fill="none" stroke="#000000" paint-order="fill stroke markers" d=" M 602 714 L 698 714 L 698 762 L 602 762 L 602 714 Z Z" stroke-miterlimit="10" stroke-dasharray=""/>
</g>
<g>
<rect fill="#E2E2E2" stroke="none" x="944" y="1072" width="96" height="48" transform="matrix(1 0 0 1 -342 -358)"/>
</g>
<g>
<path fill="none" stroke="#000000" paint-order="fill stroke markers" d=" M 602 714 L 698 714 L 698 762 L 602 762 L 602 714 Z Z" stroke-miterlimit="10" stroke-dasharray=""/>
</g>
<g>
<g>
<path fill="none" stroke="none"/>
<text fill="#000000" stroke="none" font-family="Arial" font-size="13px" font-style="normal" font-weight="bold" text-decoration="undefined" x="992.5" y="1085.5" text-anchor="middle" dominant-baseline="central" transform="matrix(1 0 0 1 -342 -358)">
FS</text>
<path fill="none" stroke="#000000" paint-order="fill stroke markers" d=" M 658.805908203125 734 L 642.194091796875 734" stroke-miterlimit="10" stroke-dasharray=""/>
</g>
</g>
<g>
<path fill="none" stroke="#000000" paint-order="fill stroke markers" d=" M 234 218 L 362 218 L 362 378" stroke-miterlimit="10" stroke-dasharray=""/>
</g>
<g>
<path fill="none" stroke="#000000" paint-order="fill stroke markers" d=" M 357.790482243984 367.8373251423759 L 362 378 L 366.209517756016 367.8373251423759" stroke-miterlimit="10" stroke-dasharray=""/>
</g>
<g>
<path fill="none" stroke="#000000" paint-order="fill stroke markers" d=" M 634 378 L 634 186 L 250 186" stroke-miterlimit="10" stroke-dasharray=""/>
</g>
<g>
<path fill="none" stroke="#000000" paint-order="fill stroke markers" d=" M 260.1626748576241 181.790482243984 L 250 186 L 260.1626748576241 190.209517756016" stroke-miterlimit="10" stroke-dasharray=""/>
</g>
<g>
<path fill="none" stroke="#000000" paint-order="fill stroke markers" d=" M 234 250 L 362 250 L 362 378" stroke-miterlimit="10" stroke-dasharray=""/>
</g>
<g>
<path fill="none" stroke="#000000" paint-order="fill stroke markers" d=" M 357.790482243984 367.8373251423759 L 362 378 L 366.209517756016 367.8373251423759" stroke-miterlimit="10" stroke-dasharray=""/>
</g>
<g>
<path fill="none" stroke="#000000" paint-order="fill stroke markers" d=" M 234 282 L 362 282 L 362 378" stroke-miterlimit="10" stroke-dasharray=""/>
</g>
<g>
<path fill="none" stroke="#000000" paint-order="fill stroke markers" d=" M 357.790482243984 367.8373251423759 L 362 378 L 366.209517756016 367.8373251423759" stroke-miterlimit="10" stroke-dasharray=""/>
</g>
<g>
<path fill="none" stroke="#000000" paint-order="fill stroke markers" d=" M 202 362 L 202 394 L 330 394" stroke-miterlimit="10" stroke-dasharray=""/>
</g>
<g>
<path fill="none" stroke="#000000" paint-order="fill stroke markers" d=" M 319.8373251423759 398.209517756016 L 330 394 L 319.8373251423758 389.790482243984" stroke-miterlimit="10" stroke-dasharray=""/>
</g>
<g>
<path fill="none" stroke="#000000" paint-order="fill stroke markers" d=" M 330 426 L 170 426 L 170 362" stroke-miterlimit="10" stroke-dasharray=""/>
</g>
<g>
<path fill="none" stroke="#000000" paint-order="fill stroke markers" d=" M 174.209517756016 372.1626748576241 L 170 362 L 165.790482243984 372.1626748576241" stroke-miterlimit="10" stroke-dasharray=""/>
</g>
<g>
<path fill="none" stroke="#000000" paint-order="fill stroke markers" d=" M 650 474 L 650 714" stroke-miterlimit="10" stroke-dasharray=""/>
</g>
<g>
<path fill="none" stroke="#000000" paint-order="fill stroke markers" d=" M 645.790482243984 703.8373251423759 L 650 714 L 654.209517756016 703.8373251423759" stroke-miterlimit="10" stroke-dasharray=""/>
</g>
<g>
<path fill="none" stroke="#000000" paint-order="fill stroke markers" d=" M 602 378 L 602 330 L 458 330 L 458 378" stroke-miterlimit="10" stroke-dasharray=""/>
</g>
<g>
<path fill="none" stroke="#000000" paint-order="fill stroke markers" d=" M 453.790482243984 367.8373251423759 L 458 378 L 462.209517756016 367.8373251423759" stroke-miterlimit="10" stroke-dasharray=""/>
</g>
<g>
<rect fill="#6DCEFF" stroke="none" x="736" y="368" width="144" height="128" transform="matrix(1 0 0 1 -342 -358)"/>
</g>
<g>
<path fill="none" stroke="#000000" paint-order="fill stroke markers" d=" M 394 10 L 538 10 L 538 138 L 394 138 L 394 10 Z Z" stroke-miterlimit="10" stroke-dasharray=""/>
</g>
<g>
<rect fill="#6DCEFF" stroke="none" x="736" y="368" width="144" height="128" transform="matrix(1 0 0 1 -342 -358)"/>
</g>
<g>
<path fill="none" stroke="#000000" paint-order="fill stroke markers" d=" M 394 10 L 538 10 L 538 138 L 394 138 L 394 10 Z Z" stroke-miterlimit="10" stroke-dasharray=""/>
</g>
<g>
<g>
<path fill="none" stroke="none"/>
<text fill="#000000" stroke="none" font-family="Arial" font-size="13px" font-style="normal" font-weight="bold" text-decoration="undefined" x="808.5" y="381.5" text-anchor="middle" dominant-baseline="central" transform="matrix(1 0 0 1 -342 -358)">
Ctrl</text>
<path fill="none" stroke="#000000" paint-order="fill stroke markers" d=" M 477.694091796875 30 L 455.305908203125 30" stroke-miterlimit="10" stroke-dasharray=""/>
</g>
</g>
<g>
<path fill="none" stroke="#000000" paint-order="fill stroke markers" d=" M 186 154 L 186 122 L 394 122" stroke-miterlimit="10" stroke-dasharray=""/>
</g>
<g>
<path fill="none" stroke="#000000" paint-order="fill stroke markers" d=" M 383.8373251423759 126.209517756016 L 394 122 L 383.8373251423758 117.790482243984" stroke-miterlimit="10" stroke-dasharray=""/>
</g>
<g>
<path fill="none" stroke="#000000" paint-order="fill stroke markers" d=" M 122 218 L 74 218 L 74 90 L 394 90" stroke-miterlimit="10" stroke-dasharray=""/>
</g>
<g>
<path fill="none" stroke="#000000" paint-order="fill stroke markers" d=" M 383.8373251423759 94.209517756016 L 394 90 L 383.8373251423758 85.790482243984" stroke-miterlimit="10" stroke-dasharray=""/>
</g>
<g>
<path fill="none" stroke="#000000" paint-order="fill stroke markers" d=" M 122 250 L 74 250 L 74 90 L 394 90" stroke-miterlimit="10" stroke-dasharray=""/>
</g>
<g>
<path fill="none" stroke="#000000" paint-order="fill stroke markers" d=" M 383.8373251423759 94.209517756016 L 394 90 L 383.8373251423758 85.790482243984" stroke-miterlimit="10" stroke-dasharray=""/>
</g>
<g>
<path fill="none" stroke="#000000" paint-order="fill stroke markers" d=" M 122 282 L 74 282 L 74 90 L 394 90" stroke-miterlimit="10" stroke-dasharray=""/>
</g>
<g>
<path fill="none" stroke="#000000" paint-order="fill stroke markers" d=" M 383.8373251423759 94.209517756016 L 394 90 L 383.8373251423758 85.790482243984" stroke-miterlimit="10" stroke-dasharray=""/>
</g>
<g>
<path fill="none" stroke="#000000" paint-order="fill stroke markers" d=" M 234 314 L 362 314 L 362 378" stroke-miterlimit="10" stroke-dasharray=""/>
</g>
<g>
<path fill="none" stroke="#000000" paint-order="fill stroke markers" d=" M 357.790482243984 367.8373251423759 L 362 378 L 366.209517756016 367.8373251423759" stroke-miterlimit="10" stroke-dasharray=""/>
</g>
<g>
<path fill="none" stroke="#000000" paint-order="fill stroke markers" d=" M 122 314 L 74 314 L 74 90 L 394 90" stroke-miterlimit="10" stroke-dasharray=""/>
</g>
<g>
<path fill="none" stroke="#000000" paint-order="fill stroke markers" d=" M 383.8373251423759 94.209517756016 L 394 90 L 383.8373251423758 85.790482243984" stroke-miterlimit="10" stroke-dasharray=""/>
</g>
<g>
<path fill="none" stroke="#000000" paint-order="fill stroke markers" d=" M 330 458 L 42 458 L 42 58 L 394 58" stroke-miterlimit="10" stroke-dasharray=""/>
</g>
<g>
<path fill="none" stroke="#000000" paint-order="fill stroke markers" d=" M 383.8373251423759 62.209517756016 L 394 58 L 383.8373251423758 53.790482243984" stroke-miterlimit="10" stroke-dasharray=""/>
</g>
<g>
<path fill="none" stroke="#000000" paint-order="fill stroke markers" d=" M 666 378 L 666 90 L 538 90" stroke-miterlimit="10" stroke-dasharray=""/>
</g>
<g>
<path fill="none" stroke="#000000" paint-order="fill stroke markers" d=" M 548.1626748576241 85.790482243984 L 538 90 L 548.1626748576241 94.209517756016" stroke-miterlimit="10" stroke-dasharray=""/>
</g>
<g>
<path fill="none" stroke="#000000" paint-order="fill stroke markers" d=" M 330 554 L 10 554 L 10 26 L 394 26" stroke-miterlimit="10" stroke-dasharray=""/>
</g>
<g>
<path fill="none" stroke="#000000" paint-order="fill stroke markers" d=" M 383.8373251423759 30.209517756015998 L 394 26 L 383.8373251423758 21.790482243984002" stroke-miterlimit="10" stroke-dasharray=""/>
</g>
<g>
<path fill="none" stroke="#000000" paint-order="fill stroke markers" d=" M 810 250 L 810 58 L 538 58" stroke-miterlimit="10" stroke-dasharray=""/>
</g>
<g>
<path fill="none" stroke="#000000" paint-order="fill stroke markers" d=" M 548.1626748576241 53.790482243984 L 538 58 L 548.1626748576241 62.209517756016" stroke-miterlimit="10" stroke-dasharray=""/>
</g>
<g>
<path fill="none" stroke="#000000" paint-order="fill stroke markers" d=" M 410 618 L 410 666" stroke-miterlimit="10" stroke-dasharray=""/>
</g>
<g>
<path fill="none" stroke="#000000" paint-order="fill stroke markers" d=" M 405.790482243984 655.8373251423759 L 410 666 L 414.209517756016 655.8373251423759" stroke-miterlimit="10" stroke-dasharray=""/>
</g>
<g>
<path fill="none" stroke="#000000" paint-order="fill stroke markers" d=" M 810 346 L 810 890 L 170 890 L 170 586 L 330 586" stroke-miterlimit="10" stroke-dasharray=""/>
</g>
<g>
<path fill="none" stroke="#000000" paint-order="fill stroke markers" d=" M 319.8373251423759 590.209517756016 L 330 586 L 319.8373251423758 581.790482243984" stroke-miterlimit="10" stroke-dasharray=""/>
</g>
</g>
</svg>
