<svg version="1.1" xmlns="http://www.w3.org/2000/svg" xmlns:xlink="http://www.w3.org/1999/xlink" width="885" height="660">
<defs/>
<g>
<g>
<rect fill="#6DCEFF" stroke="none" x="384" y="528" width="144" height="192" transform="matrix(1 0 0 1 -374 -518)"/>
</g>
<g>
<path fill="none" stroke="#000000" paint-order="fill stroke markers" d=" M 10 10 L 154 10 L 154 202 L 10 202 L 10 10 Z Z" stroke-miterlimit="10" stroke-dasharray=""/>
</g>
<g>
<rect fill="#6DCEFF" stroke="none" x="384" y="528" width="144" height="192" transform="matrix(1 0 0 1 -374 -518)"/>
</g>
<g>
<path fill="none" stroke="#000000" paint-order="fill stroke markers" d=" M 10 10 L 154 10 L 154 202 L 10 202 L 10 10 Z Z" stroke-miterlimit="10" stroke-dasharray=""/>
</g>
<g>
<g>
<path fill="none" stroke="none"/>
<text fill="#000000" stroke="none" font-family="Arial" font-size="13px" font-style="normal" font-weight="bold" text-decoration="undefined" x="456.5" y="541.5" text-anchor="middle" dominant-baseline="central" transform="matrix(1 0 0 1 -374 -518)">
Provider</text>
<path fill="none" stroke="#000000" paint-order="fill stroke markers" d=" M 108.871337890625 30 L 56.128662109375 30" stroke-miterlimit="10" stroke-dasharray=""/>
</g>
</g>
<g>
<rect fill="#6DCEFF" stroke="none" x="640" y="736" width="224" height="96" transform="matrix(1 0 0 1 -374 -518)"/>
</g>
<g>
<path fill="none" stroke="#000000" paint-order="fill stroke markers" d=" M 266 218 L 490 218 L 490 314 L 266 314 L 266 218 Z Z" stroke-miterlimit="10" stroke-dasharray=""/>
</g>
<g>
<rect fill="#6DCEFF" stroke="none" x="640" y="736" width="224" height="96" transform="matrix(1 0 0 1 -374 -518)"/>
</g>
<g>
<path fill="none" stroke="#000000" paint-order="fill stroke markers" d=" M 266 218 L 490 218 L 490 314 L 266 314 L 266 218 Z Z" stroke-miterlimit="10" stroke-dasharray=""/>
</g>
<g>
<g>
<path fill="none" stroke="none"/>
<text fill="#000000" stroke="none" font-family="Arial" font-size="13px" font-style="normal" font-weight="bold" text-decoration="undefined" x="752.5" y="749.5" text-anchor="middle" dominant-baseline="central" transform="matrix(1 0 0 1 -374 -518)">
Mapper</text>
<path fill="none" stroke="#000000" paint-order="fill stroke markers" d=" M 401.614990234375 238 L 355.385009765625 238" stroke-miterlimit="10" stroke-dasharray=""/>
</g>
</g>
<g>
<rect fill="#FFA3FF" stroke="none" x="560" y="928" width="352" height="48" transform="matrix(1 0 0 1 -374 -518)"/>
</g>
<g>
<path fill="none" stroke="#000000" paint-order="fill stroke markers" d=" M 186 410 L 538 410 L 538 458 L 186 458 L 186 410 Z Z" stroke-miterlimit="10" stroke-dasharray=""/>
</g>
<g>
<rect fill="#FFA3FF" stroke="none" x="560" y="928" width="352" height="48" transform="matrix(1 0 0 1 -374 -518)"/>
</g>
<g>
<path fill="none" stroke="#000000" paint-order="fill stroke markers" d=" M 186 410 L 538 410 L 538 458 L 186 458 L 186 410 Z Z" stroke-miterlimit="10" stroke-dasharray=""/>
</g>
<g>
<g>
<path fill="none" stroke="none"/>
<text fill="#000000" stroke="none" font-family="Arial" font-size="13px" font-style="normal" font-weight="bold" text-decoration="undefined" x="736.5" y="941.5" text-anchor="middle" dominant-baseline="central" transform="matrix(1 0 0 1 -374 -518)">
Com</text>
<path fill="none" stroke="#000000" paint-order="fill stroke markers" d=" M 376.944091796875 430 L 348.055908203125 430" stroke-miterlimit="10" stroke-dasharray=""/>
</g>
</g>
<g>
<path fill="none" stroke="#000000" paint-order="fill stroke markers" d=" M 362 410 L 362 314" stroke-miterlimit="10" stroke-dasharray=""/>
</g>
<g>
<path fill="none" stroke="#000000" paint-order="fill stroke markers" d=" M 366.209517756016 324.1626748576241 L 362 314 L 357.790482243984 324.1626748576241" stroke-miterlimit="10" stroke-dasharray=""/>
</g>
<g>
<rect fill="#FFDF82" stroke="none" x="400" y="632" width="112" height="32" transform="matrix(1 0 0 1 -374 -518)"/>
</g>
<g>
<path fill="none" stroke="#000000" paint-order="fill stroke markers" d=" M 26 114 L 138 114 L 138 146 L 26 146 L 26 114 Z Z" stroke-miterlimit="10" stroke-dasharray=""/>
</g>
<g>
<rect fill="#FFDF82" stroke="none" x="400" y="632" width="112" height="32" transform="matrix(1 0 0 1 -374 -518)"/>
</g>
<g>
<path fill="none" stroke="#000000" paint-order="fill stroke markers" d=" M 26 114 L 138 114 L 138 146 L 26 146 L 26 114 Z Z" stroke-miterlimit="10" stroke-dasharray=""/>
</g>
<g>
<g>
<path fill="none" stroke="none"/>
<text fill="#000000" stroke="none" font-family="Arial" font-size="13px" font-style="normal" font-weight="bold" text-decoration="undefined" x="456.5" y="645.5" text-anchor="middle" dominant-baseline="central" transform="matrix(1 0 0 1 -374 -518)">
TSW</text>
<path fill="none" stroke="#000000" paint-order="fill stroke markers" d=" M 96.94091796875 134 L 68.05908203125 134" stroke-miterlimit="10" stroke-dasharray=""/>
</g>
</g>
<g>
<rect fill="#6DCEFF" stroke="none" x="912" y="736" width="160" height="96" transform="matrix(1 0 0 1 -374 -518)"/>
</g>
<g>
<path fill="none" stroke="#000000" paint-order="fill stroke markers" d=" M 538 218 L 698 218 L 698 314 L 538 314 L 538 218 Z Z" stroke-miterlimit="10" stroke-dasharray=""/>
</g>
<g>
<rect fill="#6DCEFF" stroke="none" x="912" y="736" width="160" height="96" transform="matrix(1 0 0 1 -374 -518)"/>
</g>
<g>
<path fill="none" stroke="#000000" paint-order="fill stroke markers" d=" M 538 218 L 698 218 L 698 314 L 538 314 L 538 218 Z Z" stroke-miterlimit="10" stroke-dasharray=""/>
</g>
<g>
<g>
<path fill="none" stroke="none"/>
<text fill="#000000" stroke="none" font-family="Arial" font-size="13px" font-style="normal" font-weight="bold" text-decoration="undefined" x="992.5" y="749.5" text-anchor="middle" dominant-baseline="central" transform="matrix(1 0 0 1 -374 -518)">
Reader</text>
<path fill="none" stroke="#000000" paint-order="fill stroke markers" d=" M 640.5390625 238 L 596.4609375 238" stroke-miterlimit="10" stroke-dasharray=""/>
</g>
</g>
<g>
<rect fill="#FFD8FF" stroke="none" x="560" y="1072" width="96" height="96" transform="matrix(1 0 0 1 -374 -518)"/>
</g>
<g>
<path fill="none" stroke="#000000" paint-order="fill stroke markers" d=" M 186 554 L 282 554 L 282 650 L 186 650 L 186 554 Z Z" stroke-miterlimit="10" stroke-dasharray=""/>
</g>
<g>
<rect fill="#FFD8FF" stroke="none" x="560" y="1072" width="96" height="96" transform="matrix(1 0 0 1 -374 -518)"/>
</g>
<g>
<path fill="none" stroke="#000000" paint-order="fill stroke markers" d=" M 186 554 L 282 554 L 282 650 L 186 650 L 186 554 Z Z" stroke-miterlimit="10" stroke-dasharray=""/>
</g>
<g>
<g>
<path fill="none" stroke="none"/>
<text fill="#000000" stroke="none" font-family="Arial" font-size="13px" font-style="normal" font-weight="bold" text-decoration="undefined" x="608.5" y="1085.5" text-anchor="middle" dominant-baseline="central" transform="matrix(1 0 0 1 -374 -518)">
GUI</text>
<path fill="none" stroke="#000000" paint-order="fill stroke markers" d=" M 246.055908203125 574 L 222.944091796875 574" stroke-miterlimit="10" stroke-dasharray=""/>
</g>
</g>
<g>
<rect fill="#FFD8FF" stroke="none" x="688" y="1072" width="96" height="96" transform="matrix(1 0 0 1 -374 -518)"/>
</g>
<g>
<path fill="none" stroke="#000000" paint-order="fill stroke markers" d=" M 314 554 L 410 554 L 410 650 L 314 650 L 314 554 Z Z" stroke-miterlimit="10" stroke-dasharray=""/>
</g>
<g>
<rect fill="#FFD8FF" stroke="none" x="688" y="1072" width="96" height="96" transform="matrix(1 0 0 1 -374 -518)"/>
</g>
<g>
<path fill="none" stroke="#000000" paint-order="fill stroke markers" d=" M 314 554 L 410 554 L 410 650 L 314 650 L 314 554 Z Z" stroke-miterlimit="10" stroke-dasharray=""/>
</g>
<g>
<g>
<path fill="none" stroke="none"/>
<text fill="#000000" stroke="none" font-family="Arial" font-size="13px" font-style="normal" font-weight="bold" text-decoration="undefined" x="736.5" y="1085.5" text-anchor="middle" dominant-baseline="central" transform="matrix(1 0 0 1 -374 -518)">
FLD</text>
<path fill="none" stroke="#000000" paint-order="fill stroke markers" d=" M 375.135009765625 574 L 349.864990234375 574" stroke-miterlimit="10" stroke-dasharray=""/>
</g>
</g>
<g>
<rect fill="#FFFFFF00" stroke="none" x="944" y="1024" width="96" height="96" transform="matrix(1 0 0 1 -374 -518)"/>
</g>
<g>
<path fill="none" stroke="#000000" paint-order="fill stroke markers" d=" M 570 506 L 666 506 L 666 602 L 570 602 L 570 506 Z Z" stroke-miterlimit="10" stroke-dasharray=""/>
</g>
<g>
<rect fill="#FFFFFF00" stroke="none" x="944" y="1024" width="96" height="96" transform="matrix(1 0 0 1 -374 -518)"/>
</g>
<g>
<path fill="none" stroke="#000000" paint-order="fill stroke markers" d=" M 570 506 L 666 506 L 666 602 L 570 602 L 570 506 Z Z" stroke-miterlimit="10" stroke-dasharray=""/>
</g>
<g>
<g>
<path fill="none" stroke="none"/>
<text fill="#000000" stroke="none" font-family="Arial" font-size="13px" font-style="normal" font-weight="bold" text-decoration="undefined" x="992.5" y="1037.5" text-anchor="middle" dominant-baseline="central" transform="matrix(1 0 0 1 -374 -518)">
project data</text>
<path fill="none" stroke="#000000" paint-order="fill stroke markers" d=" M 655.341796875 526 L 581.658203125 526" stroke-miterlimit="10" stroke-dasharray=""/>
</g>
</g>
<g>
<path fill="none" stroke="#000000" paint-order="fill stroke markers" d=" M 218 554 L 218 506" stroke-miterlimit="10" stroke-dasharray=""/>
</g>
<g>
<path fill="none" stroke="#000000" paint-order="fill stroke markers" d=" M 222.209517756016 516.1626748576241 L 218 506 L 213.790482243984 516.1626748576241" stroke-miterlimit="10" stroke-dasharray=""/>
</g>
<g>
<path fill="none" stroke="#000000" paint-order="fill stroke markers" d=" M 250 506 L 250 554" stroke-miterlimit="10" stroke-dasharray=""/>
</g>
<g>
<path fill="none" stroke="#000000" paint-order="fill stroke markers" d=" M 245.790482243984 543.8373251423759 L 250 554 L 254.209517756016 543.8373251423759" stroke-miterlimit="10" stroke-dasharray=""/>
</g>
<g>
<path fill="none" stroke="#007561" paint-order="fill stroke markers" d=" M 618 314 L 618 458" stroke-miterlimit="10" stroke-dasharray=""/>
</g>
<g>
<path fill="none" stroke="#007561" paint-order="fill stroke markers" d=" M 613.790482243984 447.8373251423759 L 618 458 L 622.209517756016 447.8373251423759" stroke-miterlimit="10" stroke-dasharray=""/>
</g>
<g>
<rect fill="#FFFFFF00" stroke="none" x="1128" y="832" width="120" height="48" transform="matrix(1 0 0 1 -374 -518)"/>
</g>
<g>
<path fill="none" stroke="#007561" paint-order="fill stroke markers" d=" M 754 314 L 874 314 L 874 362 L 754 362 L 754 314 Z Z" stroke-miterlimit="10" stroke-dasharray=""/>
</g>
<g>
<rect fill="#FFFFFF00" stroke="none" x="1128" y="832" width="120" height="48" transform="matrix(1 0 0 1 -374 -518)"/>
</g>
<g>
<path fill="none" stroke="#007561" paint-order="fill stroke markers" d=" M 754 314 L 874 314 L 874 362 L 754 362 L 754 314 Z Z" stroke-miterlimit="10" stroke-dasharray=""/>
</g>
<g>
<g>
<path fill="none" stroke="none"/>
<text fill="#007561" stroke="none" font-family="Arial" font-size="13px" font-style="normal" font-weight="bold" text-decoration="undefined" x="1188.5" y="845.5" text-anchor="middle" dominant-baseline="central" transform="matrix(1 0 0 1 -374 -518)">
Startup</text>
<path fill="none" stroke="#007561" paint-order="fill stroke markers" d=" M 837.25 334 L 791.75 334" stroke-miterlimit="10" stroke-dasharray=""/>
</g>
</g>
<g>
<path fill="none" stroke="#007561" paint-order="fill stroke markers" d=" M 810 314 L 810 266 L 698 266" stroke-miterlimit="10" stroke-dasharray=""/>
</g>
<g>
<path fill="none" stroke="#007561" paint-order="fill stroke markers" d=" M 708.1626748576241 261.790482243984 L 698 266 L 708.1626748576241 270.209517756016" stroke-miterlimit="10" stroke-dasharray=""/>
</g>
<g>
<rect fill="#D1FFA3" stroke="none" x="400" y="600" width="112" height="32" transform="matrix(1 0 0 1 -374 -518)"/>
</g>
<g>
<path fill="none" stroke="#000000" paint-order="fill stroke markers" d=" M 26 82 L 138 82 L 138 114 L 26 114 L 26 82 Z Z" stroke-miterlimit="10" stroke-dasharray=""/>
</g>
<g>
<rect fill="#D1FFA3" stroke="none" x="400" y="600" width="112" height="32" transform="matrix(1 0 0 1 -374 -518)"/>
</g>
<g>
<path fill="none" stroke="#000000" paint-order="fill stroke markers" d=" M 26 82 L 138 82 L 138 114 L 26 114 L 26 82 Z Z" stroke-miterlimit="10" stroke-dasharray=""/>
</g>
<g>
<g>
<path fill="none" stroke="none"/>
<text fill="#000000" stroke="none" font-family="Arial" font-size="13px" font-style="normal" font-weight="bold" text-decoration="undefined" x="456.5" y="613.5" text-anchor="middle" dominant-baseline="central" transform="matrix(1 0 0 1 -374 -518)">
SIG_X</text>
<path fill="none" stroke="#000000" paint-order="fill stroke markers" d=" M 101.647705078125 102 L 63.352294921875 102" stroke-miterlimit="10" stroke-dasharray=""/>
</g>
</g>
<g>
<path fill="none" stroke="#000000" paint-order="fill stroke markers" d=" M 394 314 L 394 410" stroke-miterlimit="10" stroke-dasharray=""/>
</g>
<g>
<path fill="none" stroke="#000000" paint-order="fill stroke markers" d=" M 389.790482243984 399.8373251423759 L 394 410 L 398.209517756016 399.8373251423759" stroke-miterlimit="10" stroke-dasharray=""/>
</g>
<g>
<path fill="none" stroke="#000000" paint-order="fill stroke markers" d=" M 346 554 L 346 506" stroke-miterlimit="10" stroke-dasharray=""/>
</g>
<g>
<path fill="none" stroke="#000000" paint-order="fill stroke markers" d=" M 350.209517756016 516.1626748576241 L 346 506 L 341.790482243984 516.1626748576241" stroke-miterlimit="10" stroke-dasharray=""/>
</g>
<g>
<path fill="none" stroke="#000000" paint-order="fill stroke markers" d=" M 378 506 L 378 554" stroke-miterlimit="10" stroke-dasharray=""/>
</g>
<g>
<path fill="none" stroke="#000000" paint-order="fill stroke markers" d=" M 373.790482243984 543.8373251423759 L 378 554 L 382.209517756016 543.8373251423759" stroke-miterlimit="10" stroke-dasharray=""/>
</g>
<g>
<rect fill="#D8FFF8" stroke="none" x="400" y="568" width="112" height="32" transform="matrix(1 0 0 1 -374 -518)"/>
</g>
<g>
<path fill="none" stroke="#000000" paint-order="fill stroke markers" d=" M 26 50 L 138 50 L 138 82 L 26 82 L 26 50 Z Z" stroke-miterlimit="10" stroke-dasharray=""/>
</g>
<g>
<rect fill="#D8FFF8" stroke="none" x="400" y="568" width="112" height="32" transform="matrix(1 0 0 1 -374 -518)"/>
</g>
<g>
<path fill="none" stroke="#000000" paint-order="fill stroke markers" d=" M 26 50 L 138 50 L 138 82 L 26 82 L 26 50 Z Z" stroke-miterlimit="10" stroke-dasharray=""/>
</g>
<g>
<g>
<path fill="none" stroke="none"/>
<text fill="#000000" stroke="none" font-family="Arial" font-size="13px" font-style="normal" font-weight="bold" text-decoration="undefined" x="456.5" y="581.5" text-anchor="middle" dominant-baseline="central" transform="matrix(1 0 0 1 -374 -518)">
LCR_X</text>
<path fill="none" stroke="#000000" paint-order="fill stroke markers" d=" M 103.80908203125 70 L 61.19091796875 70" stroke-miterlimit="10" stroke-dasharray=""/>
</g>
</g>
<g>
<rect fill="#D8E5FF" stroke="none" x="400" y="664" width="112" height="32" transform="matrix(1 0 0 1 -374 -518)"/>
</g>
<g>
<path fill="none" stroke="#000000" paint-order="fill stroke markers" d=" M 26 146 L 138 146 L 138 178 L 26 178 L 26 146 Z Z" stroke-miterlimit="10" stroke-dasharray=""/>
</g>
<g>
<rect fill="#D8E5FF" stroke="none" x="400" y="664" width="112" height="32" transform="matrix(1 0 0 1 -374 -518)"/>
</g>
<g>
<path fill="none" stroke="#000000" paint-order="fill stroke markers" d=" M 26 146 L 138 146 L 138 178 L 26 178 L 26 146 Z Z" stroke-miterlimit="10" stroke-dasharray=""/>
</g>
<g>
<g>
<path fill="none" stroke="none"/>
<text fill="#000000" stroke="none" font-family="Arial" font-size="13px" font-style="normal" font-weight="bold" text-decoration="undefined" x="456.5" y="677.5" text-anchor="middle" dominant-baseline="central" transform="matrix(1 0 0 1 -374 -518)">
SEG</text>
<path fill="none" stroke="#000000" paint-order="fill stroke markers" d=" M 96.226806640625 166 L 68.773193359375 166" stroke-miterlimit="10" stroke-dasharray=""/>
</g>
</g>
<g>
<rect fill="#FFD8FF" stroke="none" x="816" y="1072" width="96" height="96" transform="matrix(1 0 0 1 -374 -518)"/>
</g>
<g>
<path fill="none" stroke="#000000" paint-order="fill stroke markers" d=" M 442 554 L 538 554 L 538 650 L 442 650 L 442 554 Z Z" stroke-miterlimit="10" stroke-dasharray=""/>
</g>
<g>
<rect fill="#FFD8FF" stroke="none" x="816" y="1072" width="96" height="96" transform="matrix(1 0 0 1 -374 -518)"/>
</g>
<g>
<path fill="none" stroke="#000000" paint-order="fill stroke markers" d=" M 442 554 L 538 554 L 538 650 L 442 650 L 442 554 Z Z" stroke-miterlimit="10" stroke-dasharray=""/>
</g>
<g>
<g>
<path fill="none" stroke="none"/>
<text fill="#000000" stroke="none" font-family="Arial" font-size="13px" font-style="normal" font-weight="bold" text-decoration="undefined" x="864.5" y="1085.5" text-anchor="middle" dominant-baseline="central" transform="matrix(1 0 0 1 -374 -518)">
CTRL</text>
<path fill="none" stroke="#000000" paint-order="fill stroke markers" d=" M 507.8291015625 574 L 473.1708984375 574" stroke-miterlimit="10" stroke-dasharray=""/>
</g>
</g>
<g>
<path fill="none" stroke="#000000" paint-order="fill stroke markers" d=" M 474 554 L 474 506" stroke-miterlimit="10" stroke-dasharray=""/>
</g>
<g>
<path fill="none" stroke="#000000" paint-order="fill stroke markers" d=" M 478.209517756016 516.1626748576241 L 474 506 L 469.790482243984 516.1626748576241" stroke-miterlimit="10" stroke-dasharray=""/>
</g>
<g>
<path fill="none" stroke="#000000" paint-order="fill stroke markers" d=" M 506 506 L 506 554" stroke-miterlimit="10" stroke-dasharray=""/>
</g>
<g>
<path fill="none" stroke="#000000" paint-order="fill stroke markers" d=" M 501.790482243984 543.8373251423759 L 506 554 L 510.209517756016 543.8373251423759" stroke-miterlimit="10" stroke-dasharray=""/>
</g>
<g>
<rect fill="#FFD8FF" stroke="none" x="560" y="976" width="352" height="48" transform="matrix(1 0 0 1 -374 -518)"/>
</g>
<g>
<path fill="none" stroke="#000000" paint-order="fill stroke markers" d=" M 186 458 L 538 458 L 538 506 L 186 506 L 186 458 Z Z" stroke-miterlimit="10" stroke-dasharray=""/>
</g>
<g>
<rect fill="#FFD8FF" stroke="none" x="560" y="976" width="352" height="48" transform="matrix(1 0 0 1 -374 -518)"/>
</g>
<g>
<path fill="none" stroke="#000000" paint-order="fill stroke markers" d=" M 186 458 L 538 458 L 538 506 L 186 506 L 186 458 Z Z" stroke-miterlimit="10" stroke-dasharray=""/>
</g>
<g>
<g>
<path fill="none" stroke="none"/>
<text fill="#000000" stroke="none" font-family="Arial" font-size="13px" font-style="normal" font-weight="bold" text-decoration="undefined" x="736.5" y="989.5" text-anchor="middle" dominant-baseline="central" transform="matrix(1 0 0 1 -374 -518)">
TCP</text>
<path fill="none" stroke="#000000" paint-order="fill stroke markers" d=" M 375.5 478 L 349.5 478" stroke-miterlimit="10" stroke-dasharray=""/>
</g>
</g>
<g>
<rect fill="#E2E2E2" stroke="none" x="944" y="976" width="96" height="48" transform="matrix(1 0 0 1 -374 -518)"/>
</g>
<g>
<path fill="none" stroke="#000000" paint-order="fill stroke markers" d=" M 570 458 L 666 458 L 666 506 L 570 506 L 570 458 Z Z" stroke-miterlimit="10" stroke-dasharray=""/>
</g>
<g>
<rect fill="#E2E2E2" stroke="none" x="944" y="976" width="96" height="48" transform="matrix(1 0 0 1 -374 -518)"/>
</g>
<g>
<path fill="none" stroke="#000000" paint-order="fill stroke markers" d=" M 570 458 L 666 458 L 666 506 L 570 506 L 570 458 Z Z" stroke-miterlimit="10" stroke-dasharray=""/>
</g>
<g>
<g>
<path fill="none" stroke="none"/>
<text fill="#000000" stroke="none" font-family="Arial" font-size="13px" font-style="normal" font-weight="bold" text-decoration="undefined" x="992.5" y="989.5" text-anchor="middle" dominant-baseline="central" transform="matrix(1 0 0 1 -374 -518)">
FS</text>
<path fill="none" stroke="#000000" paint-order="fill stroke markers" d=" M 626.805908203125 478 L 610.194091796875 478" stroke-miterlimit="10" stroke-dasharray=""/>
</g>
</g>
</g>
</svg>
